<svg width="20" height="20" viewBox="0 0 20 20" fill="none" xmlns="http://www.w3.org/2000/svg">
<g clip-path="url(#clip0_6_140)">
<path d="M16.3623 19.2982C17.6453 19.2982 18.6543 18.2016 18.5477 16.9231L17.8167 8.15122C17.7219 7.01461 16.7718 6.14035 15.6313 6.14035H14.3597M14.3597 6.14035H9.9737M14.3597 6.14035V5.04386C14.3597 3.88063 13.8976 2.76505 13.075 1.94251C12.2525 1.11999 11.137 0.657898 9.9737 0.657898C8.81043 0.657898 7.69488 1.11999 6.87235 1.94251C6.04983 2.76505 5.58773 3.88063 5.58773 5.04386V6.14035M14.3597 6.14035V10.5263M5.58773 6.14035H4.3161C3.17555 6.14035 2.22541 7.01461 2.13069 8.15122L1.39969 16.9231C1.29315 18.2016 2.30212 19.2982 3.5851 19.2982H11.0702M5.58773 6.14035V10.5263" stroke="black" stroke-linecap="round" stroke-linejoin="round"/>
</g>
<defs>
<clipPath id="clip0_6_140">
<rect width="18.9474" height="20" fill="white" transform="translate(0.5)"/>
</clipPath>
</defs>
</svg>
