<svg width="23" height="20" viewBox="0 0 23 20" fill="none" xmlns="http://www.w3.org/2000/svg">
<g clip-path="url(#clip0_4_136)">
<path d="M2.27817 11.569L10.4479 19.2437C10.7294 19.508 10.87 19.6401 11.0359 19.6727C11.1107 19.6874 11.1875 19.6874 11.2622 19.6727C11.4282 19.6401 11.5688 19.508 11.8502 19.2437L20.02 11.569C22.3186 9.40972 22.5977 5.85634 20.6645 3.36459L20.301 2.89606C17.9883 -0.0847903 13.346 0.415116 11.721 3.82002C11.4914 4.30098 10.8068 4.30098 10.5772 3.82002C8.95219 0.415116 4.30991 -0.0847903 1.99717 2.89607L1.63367 3.36459C-0.299587 5.85634 -0.0204513 9.40972 2.27817 11.569Z" stroke="#313133"/>
</g>
<defs>
<clipPath id="clip0_4_136">
<rect width="22.5" height="20" fill="white"/>
</clipPath>
</defs>
</svg>
