<svg width="14" height="16" viewBox="0 0 14 16" fill="none" xmlns="http://www.w3.org/2000/svg">
<g clip-path="url(#clip0_8_533)">
<path d="M4.22596 1.02705C4.22596 1.02705 4.00096 0.5 3.65733 0.5C3.31915 0.5 3.14324 0.656136 3.02596 0.763864C2.90869 0.871591 0.946419 2.48409 0.946419 2.48409C0.946419 2.48409 0.375737 2.9825 0.419373 3.92C0.456191 4.8575 0.6396 6.19182 1.59142 8.05045C2.53642 9.905 4.90165 12.7386 6.39619 13.7348C6.39619 13.7348 7.78096 14.797 9.0696 15.2286C9.44392 15.3466 10.1926 15.5 10.3671 15.5C10.5444 15.5 10.8573 15.5 11.2166 15.2375C11.5821 14.9723 13.6323 13.3236 13.6323 13.3236C13.6323 13.3236 14.1341 12.8702 13.5512 12.3432C12.9655 11.8161 11.1873 10.6441 10.8069 10.3359C10.4257 10.023 9.88301 10.1607 9.64846 10.3727C9.4146 10.5861 8.99665 10.9373 8.94551 10.9816C8.86915 11.0402 8.65983 11.2305 8.42528 11.1357C8.12665 11.0177 6.9021 10.353 5.76687 8.79977C4.63846 7.24795 4.51437 6.74068 4.34596 6.1925C4.3174 6.11146 4.31701 6.02316 4.34485 5.94187C4.37269 5.86058 4.42713 5.79106 4.49937 5.74455C4.66846 5.62727 5.29096 5.10841 5.29096 5.10841C5.29096 5.10841 5.69392 4.71091 5.52551 4.2425C5.3571 3.77409 4.22596 1.02705 4.22596 1.02705Z" fill="white"/>
</g>
<defs>
<clipPath id="clip0_8_533">
<rect width="13.4182" height="15" fill="white" transform="translate(0.416016 0.5)"/>
</clipPath>
</defs>
</svg>
