<svg xmlns="http://www.w3.org/2000/svg" xmlns:xlink="http://www.w3.org/1999/xlink"><defs>
<clipPath id="clip0_6_252">
<rect width="100" height="100" fill="white"/>
</clipPath>

<clipPath id="clip0_6_140">
<rect width="18.9474" height="20" fill="white" transform="translate(0.5)"/>
</clipPath>

<clipPath id="clip0_4_136">
<rect width="22.5" height="20" fill="white"/>
</clipPath>

<clipPath id="clip0_8_543">
<rect width="21.8447" height="15" fill="white" transform="translate(0.571289)"/>
</clipPath>

<clipPath id="clip0_4_102">
<rect width="20" height="20" fill="white"/>
</clipPath>

<clipPath id="clip0_8_533">
<rect width="13.4182" height="15" fill="white" transform="translate(0.416016 0.5)"/>
</clipPath>

<clipPath id="clip0_6_144">
<rect width="20" height="20" fill="white"/>
</clipPath>
</defs><symbol id="arrow-left" viewBox="0 0 23 40">
<path fill-rule="evenodd" clip-rule="evenodd" d="M19.72 0L22.5 2.81152L5.97803 20.0264L7.73999 21.8623L7.72998 21.8516L22.41 37.1465L19.672 40C15.614 35.774 4.286 23.9724 0.5 20.0264C3.312 17.0944 0.569971 19.952 19.72 0Z"/>
</symbol><symbol id="arrow-link" viewBox="0 0 100 100">
<g clip-path="url(#clip0_6_252)">
<path fill-rule="evenodd" clip-rule="evenodd" d="M6.97998 0L0 6.97754L83.2401 90.0024H29.995V100H99.995V29.5239L89.995 29.375V83.1421L6.97998 0Z" fill="white"/>
</g>

</symbol><symbol id="arrow-right" viewBox="0 0 22 40">
<path fill-rule="evenodd" clip-rule="evenodd" d="M2.78003 0L0 2.81152L16.522 20.0264L14.76 21.8623L14.77 21.8516L0.0900269 37.1465L2.828 40C6.886 35.774 18.214 23.9724 22 20.0264C19.188 17.0944 21.93 19.952 2.78003 0Z"/>
</symbol><symbol id="cart" viewBox="0 0 20 20">
<g clip-path="url(#clip0_6_140)">
<path d="M16.3623 19.2982C17.6453 19.2982 18.6543 18.2016 18.5477 16.9231L17.8167 8.15122C17.7219 7.01461 16.7718 6.14035 15.6313 6.14035H14.3597M14.3597 6.14035H9.9737M14.3597 6.14035V5.04386C14.3597 3.88063 13.8976 2.76505 13.075 1.94251C12.2525 1.11999 11.137 0.657898 9.9737 0.657898C8.81043 0.657898 7.69488 1.11999 6.87235 1.94251C6.04983 2.76505 5.58773 3.88063 5.58773 5.04386V6.14035M14.3597 6.14035V10.5263M5.58773 6.14035H4.3161C3.17555 6.14035 2.22541 7.01461 2.13069 8.15122L1.39969 16.9231C1.29315 18.2016 2.30212 19.2982 3.5851 19.2982H11.0702M5.58773 6.14035V10.5263" stroke="black" stroke-linecap="round" stroke-linejoin="round"/>
</g>

</symbol><symbol id="clock" viewBox="0 0 17 16">
<path d="M8.33423 4.66667V8L10.0009 9.66667M15.8342 8C15.8342 12.1422 12.4764 15.5 8.33423 15.5C4.1921 15.5 0.834229 12.1422 0.834229 8C0.834229 3.85787 4.1921 0.5 8.33423 0.5C12.4764 0.5 15.8342 3.85787 15.8342 8Z" stroke="white" stroke-linecap="round" stroke-linejoin="round"/>
</symbol><symbol id="favorite" viewBox="0 0 23 20">
<g clip-path="url(#clip0_4_136)">
<path d="M2.27817 11.569L10.4479 19.2437C10.7294 19.508 10.87 19.6401 11.0359 19.6727C11.1107 19.6874 11.1875 19.6874 11.2622 19.6727C11.4282 19.6401 11.5688 19.508 11.8502 19.2437L20.02 11.569C22.3186 9.40972 22.5977 5.85634 20.6645 3.36459L20.301 2.89606C17.9883 -0.0847903 13.346 0.415116 11.721 3.82002C11.4914 4.30098 10.8068 4.30098 10.5772 3.82002C8.95219 0.415116 4.30991 -0.0847903 1.99717 2.89607L1.63367 3.36459C-0.299587 5.85634 -0.0204513 9.40972 2.27817 11.569Z" stroke="#313133"/>
</g>

</symbol><symbol id="mail" viewBox="0 0 23 15">
<g clip-path="url(#clip0_8_543)">
<path d="M22.4159 0.559698L11.4936 9.9174L0.571289 0.559698V0.019043H22.4159V0.559698ZM22.4159 13.7575L15.1908 8.55211L22.4159 2.29453V13.7575ZM0.571289 2.29453L7.79641 8.55211L0.571289 13.7575V2.29453ZM11.4936 11.7669L14.48 9.15011L22.4159 14.867V14.9808H0.571289V14.867L8.50727 9.15011L11.4936 11.7669Z" fill="white"/>
</g>

</symbol><symbol id="menu" viewBox="0 0 20 20">
<g clip-path="url(#clip0_4_102)">
<path d="M1.01802 9.00199H8.00405C8.26874 9.00199 8.52258 8.89685 8.70975 8.70969C8.89691 8.52252 9.00206 8.26868 9.00206 8.00399V1.01796C9.00206 0.753275 8.89691 0.499429 8.70975 0.312267C8.52258 0.125105 8.26874 0.0199585 8.00405 0.0199585H1.01802C0.753336 0.0199585 0.49949 0.125105 0.312328 0.312267C0.125166 0.499429 0.0200195 0.753275 0.0200195 1.01796V8.00399C0.0200195 8.26868 0.125166 8.52252 0.312328 8.70969C0.49949 8.89685 0.753336 9.00199 1.01802 9.00199ZM2.01603 2.01597H7.00605V7.00599H2.01603V2.01597ZM19.9801 1.01796C19.9801 0.753275 19.875 0.499429 19.6878 0.312267C19.5006 0.125105 19.2468 0.0199585 18.9821 0.0199585H11.9961C11.7314 0.0199585 11.4775 0.125105 11.2904 0.312267C11.1032 0.499429 10.9981 0.753275 10.9981 1.01796V8.00399C10.9981 8.26868 11.1032 8.52252 11.2904 8.70969C11.4775 8.89685 11.7314 9.00199 11.9961 9.00199H18.9821C19.2468 9.00199 19.5006 8.89685 19.6878 8.70969C19.875 8.52252 19.9801 8.26868 19.9801 8.00399V1.01796ZM17.9841 7.00599H12.9941V2.01597H17.9841V7.00599ZM0.0200195 18.982C0.0200195 19.2467 0.125166 19.5006 0.312328 19.6877C0.49949 19.8749 0.753336 19.98 1.01802 19.98H8.00405C8.26874 19.98 8.52258 19.8749 8.70975 19.6877C8.89691 19.5006 9.00206 19.2467 9.00206 18.982V11.996C9.00206 11.7313 8.89691 11.4775 8.70975 11.2903C8.52258 11.1031 8.26874 10.998 8.00405 10.998H1.01802C0.753336 10.998 0.49949 11.1031 0.312328 11.2903C0.125166 11.4775 0.0200195 11.7313 0.0200195 11.996V18.982ZM2.01603 12.994H7.00605V17.984H2.01603V12.994ZM19.9801 18.982V11.996C19.9801 11.7313 19.875 11.4775 19.6878 11.2903C19.5006 11.1031 19.2468 10.998 18.9821 10.998H11.9961C11.7314 10.998 11.4775 11.1031 11.2904 11.2903C11.1032 11.4775 10.9981 11.7313 10.9981 11.996V18.982C10.9981 19.2467 11.1032 19.5006 11.2904 19.6877C11.4775 19.8749 11.7314 19.98 11.9961 19.98H18.9821C19.2468 19.98 19.5006 19.8749 19.6878 19.6877C19.875 19.5006 19.9801 19.2467 19.9801 18.982ZM17.9841 17.984H12.9941V12.994H17.9841V17.984Z"/>
</g>

</symbol><symbol id="phone" viewBox="0 0 14 16">
<g clip-path="url(#clip0_8_533)">
<path d="M4.22596 1.02705C4.22596 1.02705 4.00096 0.5 3.65733 0.5C3.31915 0.5 3.14324 0.656136 3.02596 0.763864C2.90869 0.871591 0.946419 2.48409 0.946419 2.48409C0.946419 2.48409 0.375737 2.9825 0.419373 3.92C0.456191 4.8575 0.6396 6.19182 1.59142 8.05045C2.53642 9.905 4.90165 12.7386 6.39619 13.7348C6.39619 13.7348 7.78096 14.797 9.0696 15.2286C9.44392 15.3466 10.1926 15.5 10.3671 15.5C10.5444 15.5 10.8573 15.5 11.2166 15.2375C11.5821 14.9723 13.6323 13.3236 13.6323 13.3236C13.6323 13.3236 14.1341 12.8702 13.5512 12.3432C12.9655 11.8161 11.1873 10.6441 10.8069 10.3359C10.4257 10.023 9.88301 10.1607 9.64846 10.3727C9.4146 10.5861 8.99665 10.9373 8.94551 10.9816C8.86915 11.0402 8.65983 11.2305 8.42528 11.1357C8.12665 11.0177 6.9021 10.353 5.76687 8.79977C4.63846 7.24795 4.51437 6.74068 4.34596 6.1925C4.3174 6.11146 4.31701 6.02316 4.34485 5.94187C4.37269 5.86058 4.42713 5.79106 4.49937 5.74455C4.66846 5.62727 5.29096 5.10841 5.29096 5.10841C5.29096 5.10841 5.69392 4.71091 5.52551 4.2425C5.3571 3.77409 4.22596 1.02705 4.22596 1.02705Z" fill="white"/>
</g>

</symbol><symbol id="search" viewBox="0 0 20 20">
<g clip-path="url(#clip0_6_144)">
<path d="M19.1789 19.1789L14.6444 14.6444C14.6444 14.6444 12.6959 17.0179 8.91415 17.0179C4.43858 17.0179 0.810425 13.3897 0.810425 8.91415C0.810425 4.43858 4.43858 0.810425 8.91415 0.810425C13.3897 0.810425 17.0179 4.43858 17.0179 8.91415C17.0179 9.4692 16.9621 10.0112 16.8558 10.5349" stroke="#313133" stroke-linecap="round" stroke-linejoin="round"/>
</g>

</symbol></svg>