<svg width="20" height="20" viewBox="0 0 20 20" fill="none" xmlns="http://www.w3.org/2000/svg">
<g clip-path="url(#clip0_4_102)">
<path d="M1.01802 9.00199H8.00405C8.26874 9.00199 8.52258 8.89685 8.70975 8.70969C8.89691 8.52252 9.00206 8.26868 9.00206 8.00399V1.01796C9.00206 0.753275 8.89691 0.499429 8.70975 0.312267C8.52258 0.125105 8.26874 0.0199585 8.00405 0.0199585H1.01802C0.753336 0.0199585 0.49949 0.125105 0.312328 0.312267C0.125166 0.499429 0.0200195 0.753275 0.0200195 1.01796V8.00399C0.0200195 8.26868 0.125166 8.52252 0.312328 8.70969C0.49949 8.89685 0.753336 9.00199 1.01802 9.00199ZM2.01603 2.01597H7.00605V7.00599H2.01603V2.01597ZM19.9801 1.01796C19.9801 0.753275 19.875 0.499429 19.6878 0.312267C19.5006 0.125105 19.2468 0.0199585 18.9821 0.0199585H11.9961C11.7314 0.0199585 11.4775 0.125105 11.2904 0.312267C11.1032 0.499429 10.9981 0.753275 10.9981 1.01796V8.00399C10.9981 8.26868 11.1032 8.52252 11.2904 8.70969C11.4775 8.89685 11.7314 9.00199 11.9961 9.00199H18.9821C19.2468 9.00199 19.5006 8.89685 19.6878 8.70969C19.875 8.52252 19.9801 8.26868 19.9801 8.00399V1.01796ZM17.9841 7.00599H12.9941V2.01597H17.9841V7.00599ZM0.0200195 18.982C0.0200195 19.2467 0.125166 19.5006 0.312328 19.6877C0.49949 19.8749 0.753336 19.98 1.01802 19.98H8.00405C8.26874 19.98 8.52258 19.8749 8.70975 19.6877C8.89691 19.5006 9.00206 19.2467 9.00206 18.982V11.996C9.00206 11.7313 8.89691 11.4775 8.70975 11.2903C8.52258 11.1031 8.26874 10.998 8.00405 10.998H1.01802C0.753336 10.998 0.49949 11.1031 0.312328 11.2903C0.125166 11.4775 0.0200195 11.7313 0.0200195 11.996V18.982ZM2.01603 12.994H7.00605V17.984H2.01603V12.994ZM19.9801 18.982V11.996C19.9801 11.7313 19.875 11.4775 19.6878 11.2903C19.5006 11.1031 19.2468 10.998 18.9821 10.998H11.9961C11.7314 10.998 11.4775 11.1031 11.2904 11.2903C11.1032 11.4775 10.9981 11.7313 10.9981 11.996V18.982C10.9981 19.2467 11.1032 19.5006 11.2904 19.6877C11.4775 19.8749 11.7314 19.98 11.9961 19.98H18.9821C19.2468 19.98 19.5006 19.8749 19.6878 19.6877C19.875 19.5006 19.9801 19.2467 19.9801 18.982ZM17.9841 17.984H12.9941V12.994H17.9841V17.984Z" fill="#D5AB80"/>
</g>
<defs>
<clipPath id="clip0_4_102">
<rect width="20" height="20" fill="white"/>
</clipPath>
</defs>
</svg>
